<svg width="28" height="25" xmlns="http://www.w3.org/2000/svg"><defs><linearGradient x1="-.001%" y1="50%" x2="99.997%" y2="50%" id="a"><stop stop-color="#0417FF" offset="0%"/><stop stop-color="#1D8CFD" offset="100%"/></linearGradient><linearGradient x1="100.001%" y1="50%" x2="0%" y2="50%" id="b"><stop stop-color="#0417FF" offset="0%"/><stop stop-color="#1D8CFD" offset="100%"/></linearGradient></defs><g fill="none" fill-rule="evenodd"><path d="M.026 0v7.462c0 1.017.17 2.003.477 2.916.098.28.202.545.32.81a9.316 9.316 0 0 0 2.966 3.65 9.25 9.25 0 0 0 5.468 1.783h3.416c.398 0 .784-.038 1.156-.116a4.71 4.71 0 0 0-4.573-3.65H9.23a5.501 5.501 0 0 1-2.678-.713 5.424 5.424 0 0 1-2.593-3.456 4.19 4.19 0 0 1-.117-.712 4.27 4.27 0 0 1-.027-.512V0H.026Z" fill="url(#a)"/><path d="M3.789 15.694V25H0V10.829c.12.455.321.965.425 1.164a9.86 9.86 0 0 0 3.364 3.701" fill="#1E8CFE"/><path d="M5.814 8.382c-.399 0-.784.04-1.156.117.47 2.074 2.345 3.63 4.572 3.643h.026a5.547 5.547 0 0 1 2.685.713 5.429 5.429 0 0 1 2.587 3.462c.059.226.098.467.118.707.02.168.025.343.025.518V25h3.79v-7.458c0-1.018-.17-2.003-.484-2.924a7.22 7.22 0 0 0-.32-.804 9.195 9.195 0 0 0-2.96-3.65 7.62 7.62 0 0 0-.718-.472 9.255 9.255 0 0 0-4.749-1.31H5.814Z" fill="url(#b)"/><path d="M23.65 25h3.92V9.228h-3.92V25Zm-.43-21.682c0-.637.233-1.187.7-1.652A2.301 2.301 0 0 1 25.602.97c.664 0 1.23.232 1.697.696.468.454.702 1.01.702 1.668 0 .659-.234 1.22-.702 1.684a2.265 2.265 0 0 1-1.68.696c-.664 0-1.23-.231-1.697-.696a2.304 2.304 0 0 1-.702-1.7Z" fill="#0418FF"/><path d="M14.672 9.306V0h3.788v14.171a7.041 7.041 0 0 0-.424-1.164 9.86 9.86 0 0 0-3.364-3.701" fill="#1E8CFE"/></g></svg>