<?xml version="1.0" encoding="UTF-8"?>
<svg width="252.214989px" height="39.9996539px" viewBox="0 0 252.214989 39.9996539" version="1.1" xmlns="http://www.w3.org/2000/svg" xmlns:xlink="http://www.w3.org/1999/xlink">
    <title>编组</title>
    <defs>
        <filter x="-0.9%" y="-11.9%" width="101.8%" height="133.3%" filterUnits="objectBoundingBox" id="filter-1">
            <feOffset dx="0" dy="4" in="SourceAlpha" result="shadowOffsetOuter1"></feOffset>
            <feGaussianBlur stdDeviation="4" in="shadowOffsetOuter1" result="shadowBlurOuter1"></feGaussianBlur>
            <feColorMatrix values="0 0 0 0 0   0 0 0 0 0   0 0 0 0 0  0 0 0 0.0390351836 0" type="matrix" in="shadowBlurOuter1" result="shadowMatrixOuter1"></feColorMatrix>
            <feMerge>
                <feMergeNode in="shadowMatrixOuter1"></feMergeNode>
                <feMergeNode in="SourceGraphic"></feMergeNode>
            </feMerge>
        </filter>
        <polygon id="path-2" points="0 0 14.2981724 0 14.2981724 17.8713096 0 17.8713096"></polygon>
        <polygon id="path-4" points="0 24 236.214989 24 236.214989 0 0 0"></polygon>
    </defs>
    <g id="页面-1" stroke="none" stroke-width="1" fill="none" fill-rule="evenodd">
        <g id="导航栏" transform="translate(-192.000000, -26.000173)" filter="url(#filter-1)">
            <g id="编组" transform="translate(200.000000, 30.000000)">
                <g transform="translate(0.000000, 0.255997)">
                    <mask id="mask-3" fill="white">
                        <use xlink:href="#path-2"></use>
                    </mask>
                    <g id="Clip-2"></g>
                    <path d="M12.7659998,2.9103493 L6.63817454,2.9103493 C5.73582784,2.9103493 4.97449984,3.12317508 4.3533254,3.54882665 C3.73215097,3.97361306 3.42156375,4.51086839 3.42156375,5.15713204 C3.42156375,5.46339353 3.49769655,5.76100357 3.6508273,6.0508273 C3.9060452,6.47647886 4.33169677,6.77408889 4.92778198,6.94452255 C5.52300205,7.11409106 6.34921596,7.26808695 7.40382827,7.40391478 C8.32347788,7.52330486 9.09778306,7.65048124 9.72760895,7.78717422 C10.3574348,7.92300205 10.9275657,8.13582784 11.4380015,8.42565156 C12.2893046,8.91878447 12.9788256,9.53563318 13.5056991,10.2761977 C14.0334379,11.0167622 14.2981724,11.8204823 14.2981724,12.6890884 C14.2981724,13.6762193 14.0040229,14.5655888 13.4165892,15.3571969 C12.8300205,16.1479399 12.0254353,16.7656537 11.0036985,17.2077431 C9.98282686,17.6506975 8.86765437,17.8713096 7.65991132,17.8713096 L0.510349302,17.8713096 L0.510349302,14.9609603 L7.65991132,14.9609603 C8.56139288,14.9609603 9.32358603,14.7489997 9.94476046,14.322483 C10.5659349,13.8976966 10.8765221,13.3613064 10.8765221,12.7141776 C10.8765221,12.2893912 10.7233914,11.901806 10.4171299,11.5522872 C10.1108684,11.2036336 9.70165459,10.9276522 9.19121877,10.7226127 C8.96974154,10.6378285 8.33212934,10.5184384 7.27665189,10.3653077 L6.28086947,10.2121769 C3.89825889,9.83843409 2.26313399,9.20774305 1.37895534,8.32269925 C0.936000865,7.89791284 0.595998702,7.41602682 0.357218557,6.88050178 C0.119303558,6.3441116 -8.65145453e-05,5.77830648 -8.65145453e-05,5.18222126 C-8.65145453e-05,4.24613388 0.297523521,3.38271872 0.893608738,2.59111063 C1.48882881,1.79950254 2.29341408,1.1705418 3.30649941,0.701632962 C4.31871958,0.233589272 5.42956635,0 6.63817454,0 L12.7659998,0 L12.7659998,2.9103493 Z" id="Fill-1" fill="#69BD44" mask="url(#mask-3)"></path>
                </g>
                <path d="M22.7738294,14.5535633 C23.2159187,14.5535633 23.645896,14.4255218 24.0628961,14.1703039 C24.4798962,13.915086 24.8198983,13.5491294 25.0846329,13.0724343 C25.3485022,12.5966043 25.4800043,12.0256083 25.4800043,11.3620417 C25.4800043,10.69761 25.3485022,10.1283443 25.0846329,9.65078404 C24.8198983,9.17495404 24.4798962,8.80899751 24.0628961,8.55291446 C23.645896,8.2985617 23.2159187,8.17052017 22.7738294,8.17052017 L19.8124365,8.17052017 L19.8124365,14.5535633 L22.7738294,14.5535633 Z M27.0502433,6.8425219 C28.1481129,7.83051801 28.6974803,9.33673624 28.6974803,11.3620417 C28.6974803,13.3873472 28.1481129,14.8944306 27.0502433,15.8806964 C25.9523737,16.8686925 24.526614,17.3618255 22.7738294,17.3618255 L19.8124365,17.3618255 L19.8124365,23.2344328 L16.5949605,23.2344328 L16.5949605,5.36225803 L22.7738294,5.36225803 C24.526614,5.36225803 25.9523737,5.85625608 27.0502433,6.8425219 L27.0502433,6.8425219 Z" id="Fill-3" fill="#69BD44"></path>
                <path d="M36.8155726,7.9149562 C36.0499189,8.10269277 35.3430951,8.46864929 34.6968314,9.01282578 C34.0497026,9.55786742 33.7261382,10.4091705 33.7261382,11.56587 L33.7261382,18.1279983 L30.4835731,18.1279983 L30.4835731,11.4386936 C30.4835731,10.2984319 30.7690711,9.24295447 31.3392019,8.27312642 C31.9093328,7.30243322 32.6793122,6.53245377 33.6500054,5.96232292 C34.6198335,5.39132692 35.6753109,5.10669406 36.8155726,5.10669406 L36.8155726,7.9149562 Z" id="Fill-5" fill="#69BD44"></path>
                <mask id="mask-5" fill="white">
                    <use xlink:href="#path-4"></use>
                </mask>
                <g id="Clip-8"></g>
                <path d="M38.0663999,18.1273927 L41.2838759,18.1273927 L41.2838759,5.36217152 L38.0663999,5.36217152 L38.0663999,18.1273927 Z M37.9651779,3.47269385 L41.385963,3.47269385 L41.385963,0.256083054 L37.9651779,0.256083054 L37.9651779,3.47269385 Z" id="Fill-7" fill="#69BD44" mask="url(#mask-5)"></path>
                <path d="M50.3980967,5.36217152 C51.1637504,5.36217152 51.8749,5.55336866 52.5298151,5.9366281 C53.1847302,6.31902239 53.7046826,6.8389748 54.087942,7.49388991 C54.4703363,8.14967016 54.6615335,8.85995458 54.6615335,9.62560831 L54.6615335,18.1273927 L51.4449227,18.1273927 L51.4449227,10.2381313 C51.4449227,9.66021412 51.2450741,9.1705418 50.8453769,8.76997945 C50.4448145,8.3711474 49.9551422,8.17043365 49.377225,8.17043365 L47.2835731,8.17043365 L47.2835731,18.1273927 L44.0660971,18.1273927 L44.0660971,5.36217152 L50.3980967,5.36217152 Z" id="Fill-9" fill="#69BD44" mask="url(#mask-5)"></path>
                <path d="M66.278274,12.2554775 L66.278274,8.9367795 L63.1127068,8.9367795 C62.0234887,8.9367795 61.2232292,9.21708662 60.7127933,9.77943117 C60.2023575,10.3409106 59.9462745,11.1662593 59.9462745,12.2554775 C59.9462745,13.3446956 60.2023575,14.1700443 60.7127933,14.7323889 C61.2232292,15.2938683 62.0234887,15.5741754 63.1127068,15.5741754 C65.2227966,15.5741754 66.278274,14.4685195 66.278274,12.2554775 L66.278274,12.2554775 Z M69.49575,17.3615659 C69.49575,19.6083487 68.895339,21.2763491 67.6953823,22.3664324 C66.4954255,23.4547853 64.933838,23.999827 63.0106197,23.999827 L57.8275333,23.999827 L57.8275333,21.0894777 L62.780491,21.0894777 C63.7001406,21.0894777 64.4917487,20.7996539 65.1553152,20.2217368 C65.8188818,19.6429545 66.1848383,18.825392 66.2531848,17.7707797 C65.3335352,18.1791284 64.2867092,18.3833027 63.1127068,18.3833027 C61.0865362,18.3833027 59.5128366,17.8304747 58.3890127,16.7239537 C57.2660539,15.6174327 56.7045745,14.1285174 56.7045745,12.2554775 C56.7045745,10.3833027 57.2660539,8.89438737 58.3890127,7.78700119 C59.5128366,6.6813453 61.0865362,6.12765221 63.1127068,6.12765221 L69.49575,6.12765221 L69.49575,17.3615659 Z" id="Fill-10" fill="#69BD44" mask="url(#mask-5)"></path>
                <path d="M96.4054072,4.97908511 L92.6774954,4.97908511 C92.2354061,4.21343138 91.6609495,3.6770412 90.9541257,3.37077971 C90.248167,3.06451822 89.3838867,2.91052233 88.363015,2.91052233 C86.7114524,2.91052233 85.3626906,3.4391262 84.3158646,4.49373851 C83.2690386,5.54921596 82.7456256,7.11512923 82.7456256,9.19147832 C82.7456256,11.2686925 83.2690386,12.8346058 84.3158646,13.8892181 C85.3626906,14.9455607 86.7114524,15.4724343 88.363015,15.4724343 C89.3838867,15.4724343 90.2524927,15.3149778 90.9671028,15.0000649 C91.6825781,14.6851519 92.2440575,14.1530875 92.6524062,13.4047367 L96.4054072,13.4047367 C95.8949713,15.1064778 94.9251433,16.3618038 93.4950579,17.1707148 C92.0649724,17.9787607 90.319974,18.3827836 88.2609279,18.3827836 C86.5081432,18.3827836 84.9629934,18.0557586 83.6263437,17.3999784 C82.2905591,16.7450633 81.2394074,15.7276522 80.4737536,14.3494755 C79.7080999,12.9704337 79.3248405,11.2513896 79.3248405,9.19147832 C79.3248405,7.13243214 79.7080999,5.41771385 80.4737536,4.04732346 C81.2394074,2.67693306 82.2905591,1.66038715 83.6263437,0.995955445 C84.9629934,0.332388883 86.5081432,0.000173029091 88.2609279,0.000173029091 C92.6524062,0.000173029091 95.3672326,1.66038715 96.4054072,4.97908511" id="Fill-11" fill="#69BD44" mask="url(#mask-5)"></path>
                <path d="M101.154018,13.0470855 C101.154018,13.6769114 101.378955,14.2176273 101.830561,14.6683681 C102.281302,15.119974 102.822018,15.3449119 103.451844,15.3449119 L104.319585,15.3449119 L104.319585,18.153174 L102.507105,18.153174 C101.604758,18.153174 100.80969,17.9282362 100.120169,17.4766303 C99.4306478,17.0258895 98.8942576,16.4384557 98.5109982,15.7151941 C98.1286039,14.9919325 97.9365416,14.2556937 97.9365416,13.5064778 L97.9365416,0.280999243 L101.154018,0.280999243 L101.154018,13.0470855 Z" id="Fill-12" fill="#69BD44" mask="url(#mask-5)"></path>
                <path d="M113.842673,14.5150643 C114.369547,13.8091057 114.634281,12.8851303 114.634281,11.7448686 C114.634281,10.6046069 114.369547,9.6814967 113.842673,8.97467287 C113.314935,8.26871418 112.523326,7.91486969 111.467849,7.91486969 C110.395934,7.91486969 109.6,8.26871418 109.080913,8.97467287 C108.561825,9.6814967 108.302282,10.6046069 108.302282,11.7448686 C108.302282,12.8851303 108.561825,13.8091057 109.080913,14.5150643 C109.6,15.221023 110.395934,15.5748675 111.467849,15.5748675 C112.523326,15.5748675 113.314935,15.221023 113.842673,14.5150643 M114.902476,5.98732562 C115.863653,6.57475938 116.595566,7.3706932 117.098216,8.37426192 C117.6,9.37869579 117.850892,10.5025197 117.850892,11.7448686 C117.850892,12.9872175 117.6,14.1110414 117.098216,15.1146101 C116.595566,16.119044 115.863653,16.9149778 114.902476,17.5024116 C113.940435,18.0889802 112.795847,18.3831297 111.467849,18.3831297 C110.140716,18.3831297 108.995263,18.0889802 108.034087,17.5024116 C107.072045,16.9149778 106.340132,16.119044 105.838348,15.1146101 C105.335698,14.1110414 105.084806,12.9872175 105.084806,11.7448686 C105.084806,10.5025197 105.335698,9.37869579 105.838348,8.37426192 C106.340132,7.3706932 107.072045,6.57475938 108.034087,5.98732562 C108.995263,5.39989186 110.140716,5.10660755 111.467849,5.10660755 C112.795847,5.10660755 113.940435,5.39989186 114.902476,5.98732562" id="Fill-13" fill="#69BD44" mask="url(#mask-5)"></path>
                <path d="M130.131718,18.1277387 L123.799719,18.1277387 C123.016762,18.1277387 122.296961,17.9365416 121.642046,17.5532821 C120.987131,17.1708879 120.468044,16.6509354 120.084784,15.9960203 C119.701525,15.3411052 119.510328,14.6213042 119.510328,13.8383476 L119.510328,5.36251757 L122.726938,5.36251757 L122.726938,13.2258246 C122.726938,13.8046069 122.927652,14.2977398 123.327349,14.7060885 C123.727047,15.1153023 124.216719,15.3194766 124.795501,15.3194766 L126.914242,15.3194766 L126.914242,5.36251757 L130.131718,5.36251757 L130.131718,18.1277387 Z" id="Fill-14" fill="#69BD44" mask="url(#mask-5)"></path>
                <path d="M140.80372,15.3193901 L140.80372,8.93634692 L137.842327,8.93634692 C137.399373,8.93634692 136.969395,9.06438845 136.552395,9.31960636 C136.135395,9.57482427 135.794528,9.94078079 135.531524,10.4166108 C135.267654,10.8941711 135.135287,11.4634368 135.135287,12.1278685 C135.135287,12.7914351 135.267654,13.3624311 135.531524,13.8382611 C135.794528,14.3149562 136.135395,14.6809127 136.552395,14.9361306 C136.969395,15.1922137 137.399373,15.3193901 137.842327,15.3193901 L140.80372,15.3193901 Z M144.020331,18.1276522 L137.842327,18.1276522 C136.10598,18.1276522 134.684546,17.6345193 133.578025,16.6473883 C132.471504,15.6602574 131.918676,14.153174 131.918676,12.1278685 C131.918676,10.102563 132.471504,8.59634476 133.578025,7.60834865 C134.684546,6.62208284 136.10598,6.12808478 137.842327,6.12808478 L140.80372,6.12808478 L140.80372,0.255477452 L144.020331,0.255477452 L144.020331,18.1276522 Z" id="Fill-15" fill="#69BD44" mask="url(#mask-5)"></path>
                <path d="M157.68167,11.8469558 L162.175235,11.8469558 L159.928452,5.10660755 L157.68167,11.8469558 Z M161.511669,0.255736996 L167.689672,18.1279118 L164.268887,18.1279118 L163.119974,14.6552179 L156.736931,14.6552179 L155.588018,18.1279118 L152.166367,18.1279118 L158.346101,0.255736996 L161.511669,0.255736996 Z" id="Fill-16" fill="#69BD44" mask="url(#mask-5)"></path>
                <path d="M172.183757,13.0470855 C172.183757,13.6769114 172.408695,14.2176273 172.860301,14.6683681 C173.311041,15.119974 173.851757,15.3449119 174.481583,15.3449119 L175.349324,15.3449119 L175.349324,18.153174 L173.536844,18.153174 C172.634498,18.153174 171.839429,17.9282362 171.149908,17.4766303 C170.460387,17.0258895 169.923997,16.4384557 169.540738,15.7151941 C169.158343,14.9919325 168.966281,14.2556937 168.966281,13.5064778 L168.966281,0.280999243 L172.183757,0.280999243 L172.183757,13.0470855 Z" id="Fill-17" fill="#69BD44" mask="url(#mask-5)"></path>
                <path d="M177.110847,18.1273927 L180.328323,18.1273927 L180.328323,5.36217152 L177.110847,5.36217152 L177.110847,18.1273927 Z M177.00876,3.47269385 L180.429545,3.47269385 L180.429545,0.256083054 L177.00876,0.256083054 L177.00876,3.47269385 Z" id="Fill-18" fill="#69BD44" mask="url(#mask-5)"></path>
                <path d="M189.544198,15.2424786 C189.986287,15.2424786 190.416265,15.1153023 190.833265,14.8600844 C191.250265,14.6040013 191.590267,14.2380448 191.855002,13.7622148 C192.118871,13.2855196 192.250373,12.7153888 192.250373,12.0518222 C192.250373,11.3873905 192.118871,10.8172597 191.855002,10.3405645 C191.590267,9.86473451 191.250265,9.49791284 190.833265,9.24269493 C190.416265,8.98747702 189.986287,8.86030064 189.544198,8.86030064 L186.582805,8.86030064 L186.582805,15.2424786 L189.544198,15.2424786 Z M186.582805,6.05117335 L189.544198,6.05117335 C191.296983,6.05117335 192.722743,6.54517141 193.820612,7.53230237 C194.918482,8.51943333 195.467849,10.0256516 195.467849,12.0518222 C195.467849,14.0771277 194.918482,15.583346 193.820612,16.5704769 C192.722743,17.5576079 191.296983,18.0516059 189.544198,18.0516059 L183.365329,18.0516059 L183.365329,0.179431167 L186.582805,0.179431167 L186.582805,6.05117335 Z" id="Fill-19" fill="#69BD44" mask="url(#mask-5)"></path>
                <path d="M205.168725,15.3193901 L205.168725,12.3069536 L201.21155,12.3069536 C200.768595,12.3069536 200.40783,12.4557586 200.126657,12.7533687 C199.845485,13.0509787 199.705331,13.4134746 199.705331,13.8382611 C199.705331,14.2301719 199.849811,14.575365 200.139634,14.8721099 C200.428593,15.1705851 200.777247,15.3193901 201.185595,15.3193901 L205.168725,15.3193901 Z M206.087509,5.98706608 C206.785682,6.40493133 207.342836,6.962085 207.760701,7.65939224 C208.177701,8.35842976 208.386201,9.12408349 208.386201,9.9580837 L208.386201,18.1276522 L200.726203,18.1276522 L200.65007,18.1276522 C199.900854,18.1276522 199.207008,17.9407808 198.569395,17.5661728 C197.930918,17.19243 197.423943,16.6854547 197.0502,16.0469774 C196.675592,15.4085001 196.487856,14.7155185 196.487856,13.9663026 C196.487856,13.2170866 196.675592,12.5275657 197.0502,11.8977398 C197.423943,11.2687791 197.930918,10.7704553 198.569395,10.4044988 C199.207008,10.0385422 199.900854,9.85599654 200.65007,9.85599654 L205.168725,9.85599654 C205.168725,9.36199849 204.998291,8.94067265 204.658289,8.59201903 C204.317422,8.24336542 203.909073,8.06860603 203.433243,8.06860603 L198.938813,8.06860603 L198.938813,5.36243106 L203.790548,5.36243106 C204.623683,5.36243106 205.390202,5.57006597 206.087509,5.98706608 L206.087509,5.98706608 Z" id="Fill-20" fill="#69BD44" mask="url(#mask-5)"></path>
                <path d="M217.372899,15.2424786 C217.814989,15.2424786 218.244966,15.1153023 218.661966,14.8600844 C219.078966,14.6040013 219.418968,14.2380448 219.683703,13.7622148 C219.947572,13.2855196 220.079074,12.7153888 220.079074,12.0518222 C220.079074,11.3873905 219.947572,10.8172597 219.683703,10.3405645 C219.418968,9.86473451 219.078966,9.49791284 218.661966,9.24269493 C218.244966,8.98747702 217.814989,8.86030064 217.372899,8.86030064 L214.411506,8.86030064 L214.411506,15.2424786 L217.372899,15.2424786 Z M214.411506,6.05117335 L217.372899,6.05117335 C219.125684,6.05117335 220.551444,6.54517141 221.649313,7.53230237 C222.747183,8.51943333 223.29655,10.0256516 223.29655,12.0518222 C223.29655,14.0771277 222.747183,15.583346 221.649313,16.5704769 C220.551444,17.5576079 219.125684,18.0516059 217.372899,18.0516059 L211.19403,18.0516059 L211.19403,0.179431167 L214.411506,0.179431167 L214.411506,6.05117335 Z" id="Fill-21" fill="#69BD44" mask="url(#mask-5)"></path>
                <path d="M232.997859,15.3193901 L232.997859,12.3069536 L229.040683,12.3069536 C228.597729,12.3069536 228.236963,12.4557586 227.955791,12.7533687 C227.674619,13.0509787 227.534465,13.4134746 227.534465,13.8382611 C227.534465,14.2301719 227.678945,14.575365 227.968768,14.8721099 C228.257727,15.1705851 228.60638,15.3193901 229.014729,15.3193901 L232.997859,15.3193901 Z M233.916643,5.98706608 C234.614816,6.40493133 235.171969,6.962085 235.589835,7.65939224 C236.006835,8.35842976 236.215335,9.12408349 236.215335,9.9580837 L236.215335,18.1276522 L228.555337,18.1276522 L228.479204,18.1276522 C227.729988,18.1276522 227.036141,17.9407808 226.398529,17.5661728 C225.760052,17.19243 225.253077,16.6854547 224.879334,16.0469774 C224.504726,15.4085001 224.316989,14.7155185 224.316989,13.9663026 C224.316989,13.2170866 224.504726,12.5275657 224.879334,11.8977398 C225.253077,11.2687791 225.760052,10.7704553 226.398529,10.4044988 C227.036141,10.0385422 227.729988,9.85599654 228.479204,9.85599654 L232.997859,9.85599654 C232.997859,9.36199849 232.827425,8.94067265 232.487423,8.59201903 C232.146556,8.24336542 231.738207,8.06860603 231.262377,8.06860603 L226.767946,8.06860603 L226.767946,5.36243106 L231.619682,5.36243106 C232.452817,5.36243106 233.219336,5.57006597 233.916643,5.98706608 L233.916643,5.98706608 Z" id="Fill-22" fill="#69BD44" mask="url(#mask-5)"></path>
            </g>
        </g>
    </g>
</svg>