<?xml version="1.0" standalone="no"?><!DOCTYPE svg PUBLIC "-//W3C//DTD SVG 1.1//EN" "http://www.w3.org/Graphics/SVG/1.1/DTD/svg11.dtd"><svg t="1675046260708" class="icon" viewBox="0 0 3456 1024" version="1.1" xmlns="http://www.w3.org/2000/svg" p-id="101721" xmlns:xlink="http://www.w3.org/1999/xlink" width="675" height="200"><path d="M160 480h128a96 96 0 0 1 96 96v290.016H160V480zM544 480h127.008a192.992 192.992 0 1 1 0 386.016H448V576a96 96 0 0 1 96-96zM160 114.016h224V320a96 96 0 0 1-96 96H160V113.984z" fill="#00B4FF" p-id="101722"></path><path d="M448 114.016h168.992a151.008 151.008 0 1 1 0 301.984H544a96 96 0 0 1-96-96V113.984z" fill="#00F0BE" p-id="101723"></path><path d="M1363.84 298.88l109.44 355.84 100.48-355.2h66.56L1496.96 768H1443.2l-109.44-344.32L1228.16 768h-53.12L1024 299.52h72.32l108.8 355.2 101.76-355.84zM1862.4 428.16c35.424 0 63.904 11.84 85.44 35.52 21.536 23.68 32.32 57.504 32.32 101.44V768h-65.92v-183.04c0-30.72-5.76-54.4-17.28-71.04-11.52-16.64-29.024-24.96-52.48-24.96-23.904 0-44.256 8.416-61.12 25.28-16.864 16.864-25.28 40.864-25.28 72V768h-65.92V280.96h65.92v202.88a109.44 109.44 0 0 1 43.84-41.6 129.6 129.6 0 0 1 60.48-14.08zM2200.32 428.16c39.68 0 71.776 11.744 96.32 35.2 24.544 23.456 36.8 57.184 36.8 101.12V768h-56.96c-0.864-19.2-1.92-32.864-3.2-40.96-20.48 32-53.344 48-98.56 48a151.04 151.04 0 0 1-61.12-12.16 105.824 105.824 0 0 1-44.48-35.2c-11.104-15.36-16.64-33.92-16.64-55.68 0-32.864 13.44-58.88 40.32-78.08 26.88-19.2 61.216-28.8 103.04-28.8 23.456 0 47.584 3.2 72.32 9.6v-1.28c0-30.304-5.984-52.576-17.92-66.88-11.936-14.304-29.856-21.44-53.76-21.44-19.2 0-35.296 4.16-48.32 12.48-13.024 8.32-24 20.384-32.96 36.16l-48.64-28.16c10.656-23.456 27.936-42.24 51.84-56.32 23.904-14.08 51.2-21.12 81.92-21.12z m67.84 196.48c-25.6-6.4-48-9.6-67.2-9.6-25.6 0-45.44 4.896-59.52 14.72-14.08 9.824-21.12 23.456-21.12 40.96 0 15.776 5.76 28.256 17.28 37.44 11.52 9.184 26.656 13.76 45.44 13.76 23.456 0 43.52-6.72 60.16-20.16 16.64-13.44 24.96-32.096 24.96-56v-21.12zM2487.68 768h-65.92V280.96h65.92zM2722.56 428.16c29.024 0 54.4 6.72 76.16 20.16 21.76 13.44 38.624 31.776 50.56 55.04s17.92 49.376 17.92 78.4c0 9.824-1.056 21.536-3.2 35.2h-232.96c2.56 33.28 12.8 58.336 30.72 75.2 17.92 16.864 40.32 25.28 67.2 25.28 34.976 0 60.384-14.496 76.16-43.52l49.28 28.8c-8.544 23.04-24.736 40.864-48.64 53.44s-50.56 18.88-80 18.88c-30.304 0-57.824-6.72-82.56-20.16-24.736-13.44-44.48-33.376-59.2-59.84-14.72-26.464-22.08-58.016-22.08-94.72 0-35.84 7.36-66.784 22.08-92.8 14.72-26.016 34.336-45.76 58.88-59.2a163.2 163.2 0 0 1 79.68-20.16z m-2.56 57.6c-21.76 0-40.64 6.944-56.64 20.8-16 13.856-26.144 34.016-30.4 60.48h165.12c-1.696-25.6-9.6-45.536-23.68-59.84-14.08-14.304-32.224-21.44-54.4-21.44zM3201.28 522.88c56.32 17.504 84.48 54.816 84.48 112 0 42.24-14.72 74.976-44.16 98.24-29.44 23.264-71.904 34.88-127.36 34.88h-174.08V299.52h154.88c49.92 0 89.824 11.424 119.68 34.24 29.856 22.816 44.8 54.08 44.8 93.76 0 43.936-19.424 75.744-58.24 95.36zM3008 359.68v140.16h77.44c32 0 56.96-6.4 74.88-19.2 17.92-12.8 26.88-30.08 26.88-51.84 0-21.76-8.96-38.72-26.88-50.88-17.92-12.16-42.88-18.24-74.88-18.24H3008z m96.64 348.16c36.256 0 63.456-6.496 81.6-19.52 18.144-13.024 27.2-31.456 27.2-55.36s-9.056-42.56-27.2-56c-18.144-13.44-45.344-20.16-81.6-20.16H3008v151.04h96.64zM3431.04 768h-68.48V299.52h68.48z" fill="#000000" fill-opacity=".849" p-id="101724"></path></svg>