<svg xmlns="http://www.w3.org/2000/svg" xmlns:xlink="http://www.w3.org/1999/xlink" fill="none" version="1.1" width="755" height="96" viewBox="0 0 755 96"><g><path d="M37.1719,63.75Q37.1719,58.6406,34.4062,55.9219Q31.6406,53.2031,24.4219,50.625Q17.2031,48.0469,13.3828,45.2109Q9.5625,42.375,7.66406,38.7422Q5.76562,35.1094,5.76562,30.4219Q5.76562,22.3125,11.1797,17.0625Q16.5938,11.8125,25.3594,11.8125Q31.3594,11.8125,36.0469,14.5078Q40.7344,17.2031,43.2656,21.9844Q45.7969,26.7656,45.7969,32.4844L37.1719,32.4844Q37.1719,26.1562,34.125,22.6875Q31.0781,19.2188,25.3594,19.2188Q20.1562,19.2188,17.2969,22.125Q14.4375,25.0312,14.4375,30.2812Q14.4375,34.5938,17.5312,37.5Q20.625,40.4062,27.0938,42.7031Q37.1719,46.0312,41.5078,50.9062Q45.8438,55.7812,45.8438,63.6562Q45.8438,71.9531,40.4531,76.9453Q35.0625,81.9375,25.7812,81.9375Q19.8281,81.9375,14.7891,79.3359Q9.75,76.7344,6.86719,72.0234Q3.98438,67.3125,3.98438,61.2188L12.6094,61.2188Q12.6094,67.5469,16.1484,71.0625Q19.6875,74.5781,25.7812,74.5781Q31.4531,74.5781,34.3125,71.6719Q37.1719,68.7656,37.1719,63.75ZM90.6581,58.0781Q90.6581,70.125,86.3222,76.0312Q81.9863,81.9375,74.0644,81.9375Q66.4238,81.9375,62.2988,76.1719L62.2988,100.5L54.0488,100.5L54.0488,30.2812L61.5488,30.2812L61.9706,35.9062Q66.1425,29.3438,73.9238,29.3438Q82.2675,29.3438,86.3925,35.1562Q90.5175,40.9688,90.6581,52.5469L90.6581,58.0781ZM82.4081,53.3438Q82.4081,44.8125,79.7831,40.7578Q77.1581,36.7031,71.3456,36.7031Q65.3925,36.7031,62.2988,42.6562L62.2988,69.0469Q65.3456,74.8594,71.4394,74.8594Q77.0644,74.8594,79.7128,70.8047Q82.3613,66.75,82.4081,58.4062L82.4081,53.3438ZM120.379,38.0625Q118.644,37.7344,116.629,37.7344Q110.254,37.7344,107.723,44.7188L107.723,81L99.4256,81L99.4256,30.2812L107.488,30.2812L107.629,35.4375Q110.957,29.3438,117.051,29.3438Q119.019,29.3438,120.332,30L120.379,38.0625ZM135.662,81L127.365,81L127.365,30.2812L135.662,30.2812L135.662,81ZM136.318,16.8281Q136.318,18.9375,135.146,20.3438Q133.974,21.75,131.584,21.75Q129.24,21.75,128.068,20.3438Q126.896,18.9375,126.896,16.8281Q126.896,14.7188,128.068,13.2656Q129.24,11.8125,131.584,11.8125Q133.928,11.8125,135.123,13.2891Q136.318,14.7656,136.318,16.8281ZM154.601,30.2812L154.836,35.7656Q159.664,29.3438,167.164,29.3438Q180.617,29.3438,180.804,47.2969L180.804,81L172.554,81L172.554,47.6719Q172.554,41.7188,170.562,39.2109Q168.57,36.7031,164.586,36.7031Q161.492,36.7031,159.031,38.7656Q156.57,40.8281,155.07,44.1562L155.07,81L146.773,81L146.773,30.2812L154.601,30.2812ZM189.666,53.3438Q189.666,41.4844,193.978,35.4141Q198.291,29.3438,206.588,29.3438Q214.322,29.3438,218.353,35.9531L218.775,30.2812L226.275,30.2812L226.275,81.4688Q226.275,90.8906,221.447,95.9297Q216.619,100.969,207.994,100.969Q204.244,100.969,199.58,99.1172Q194.916,97.2656,192.572,94.5469L195.947,88.8281Q201.103,93.8906,207.338,93.8906Q217.697,93.8906,217.978,82.5938L217.978,75.9844Q213.947,81.9375,206.541,81.9375Q198.666,81.9375,194.259,76.0078Q189.853,70.0781,189.666,58.9688L189.666,53.3438ZM197.963,58.0781Q197.963,66.6094,200.47,70.6172Q202.978,74.625,208.697,74.625Q214.884,74.625,217.978,68.2969L217.978,42.9375Q214.744,36.7031,208.791,36.7031Q203.072,36.7031,200.541,40.7109Q198.009,44.7188,197.963,53.0156L197.963,58.0781ZM300.716,59.3438Q300.154,70.3125,294.552,76.125Q288.951,81.9375,278.732,81.9375Q268.466,81.9375,262.419,74.1328Q256.372,66.3281,256.372,52.9688L256.372,40.5938Q256.372,27.2812,262.583,19.5469Q268.794,11.8125,279.529,11.8125Q289.419,11.8125,294.833,17.7422Q300.247,23.6719,300.716,34.6875L292.044,34.6875Q291.482,26.3438,288.529,22.7812Q285.576,19.2188,279.529,19.2188Q272.544,19.2188,268.794,24.6797Q265.044,30.1406,265.044,40.6875L265.044,53.2031Q265.044,63.5625,268.537,69.0938Q272.029,74.625,278.732,74.625Q285.435,74.625,288.388,71.2969Q291.341,67.9688,292.044,59.3438L300.716,59.3438ZM318.202,81L309.906,81L309.906,9L318.202,9L318.202,81ZM327.579,53.2969Q327.579,42.2344,332.947,35.7891Q338.314,29.3438,347.126,29.3438Q355.939,29.3438,361.306,35.625Q366.673,41.9062,366.814,52.7344L366.814,58.0781Q366.814,69.0938,361.47,75.5156Q356.126,81.9375,347.22,81.9375Q338.407,81.9375,333.087,75.7031Q327.767,69.4688,327.579,58.8281L327.579,53.2969ZM335.876,58.0781Q335.876,65.9062,338.947,70.3828Q342.017,74.8594,347.22,74.8594Q358.189,74.8594,358.517,59.0156L358.517,53.2969Q358.517,45.5156,355.423,40.9922Q352.329,36.4688,347.126,36.4688Q342.017,36.4688,338.947,40.9922Q335.876,45.5156,335.876,53.25L335.876,58.0781ZM401.456,76.5469Q397.331,81.9375,389.409,81.9375Q382.519,81.9375,379.003,77.1797Q375.487,72.4219,375.441,63.3281L375.441,30.2812L383.691,30.2812L383.691,62.7188Q383.691,74.5781,390.816,74.5781Q398.362,74.5781,401.222,67.8281L401.222,30.2812L409.519,30.2812L409.519,81L401.644,81L401.456,76.5469ZM418.333,53.3438Q418.333,41.625,422.716,35.4844Q427.099,29.3438,435.302,29.3438Q442.567,29.3438,446.646,35.25L446.646,9L454.942,9L454.942,81L447.349,81L446.927,75.5625Q442.849,81.9375,435.255,81.9375Q427.38,81.9375,422.903,75.8203Q418.427,69.7031,418.333,58.5469L418.333,53.3438ZM426.63,58.0781Q426.63,66.6094,429.161,70.6172Q431.692,74.625,437.411,74.625Q443.599,74.625,446.646,68.3906L446.646,42.7969Q443.458,36.7031,437.458,36.7031Q431.739,36.7031,429.208,40.7109Q426.677,44.7188,426.63,53.0156L426.63,58.0781ZM518.837,63.1875L495.774,63.1875L490.477,81L481.665,81L503.649,12.75L511.009,12.75L533.04,81L524.227,81L518.837,63.1875ZM498.024,55.7812L516.634,55.7812L507.306,24.75L498.024,55.7812ZM548.182,81L539.886,81L539.886,9L548.182,9L548.182,81ZM568.247,81L559.95,81L559.95,30.2812L568.247,30.2812L568.247,81ZM568.903,16.8281Q568.903,18.9375,567.731,20.3438Q566.559,21.75,564.169,21.75Q561.825,21.75,560.653,20.3438Q559.481,18.9375,559.481,16.8281Q559.481,14.7188,560.653,13.2656Q561.825,11.8125,564.169,11.8125Q566.512,11.8125,567.708,13.2891Q568.903,14.7656,568.903,16.8281ZM616.108,58.0781Q616.108,69.9375,611.842,75.9375Q607.577,81.9375,599.467,81.9375Q591.405,81.9375,587.374,75L586.952,81L579.405,81L579.405,9L587.655,9L587.655,35.8594Q591.733,29.3438,599.374,29.3438Q607.717,29.3438,611.889,35.25Q616.061,41.1562,616.108,53.0625L616.108,58.0781ZM607.858,53.3438Q607.858,44.3438,605.35,40.5234Q602.842,36.7031,597.217,36.7031Q590.796,36.7031,587.655,43.6406L587.655,67.7812Q590.749,74.625,597.311,74.625Q602.936,74.625,605.374,70.6875Q607.811,66.75,607.858,58.4531L607.858,53.3438ZM650.891,81Q650.141,79.3594,649.813,75.4688Q645.407,81.9375,638.563,81.9375Q631.672,81.9375,627.805,78.0703Q623.938,74.2031,623.938,67.1719Q623.938,59.4375,629.188,54.8906Q634.438,50.3438,643.579,50.25L649.672,50.25L649.672,44.8594Q649.672,40.3125,647.657,38.3906Q645.641,36.4688,641.516,36.4688Q637.766,36.4688,635.422,38.6953Q633.079,40.9219,633.079,44.3438L624.782,44.3438Q624.782,40.4531,627.079,36.9141Q629.376,33.375,633.266,31.3594Q637.157,29.3438,641.938,29.3438Q649.719,29.3438,653.774,33.2109Q657.829,37.0781,657.922,44.4844L657.922,70.0781Q657.969,75.9375,659.516,80.25L659.516,81L650.891,81ZM639.829,74.3906Q642.876,74.3906,645.641,72.7031Q648.407,71.0156,649.672,68.4844L649.672,56.3906L644.985,56.3906Q639.079,56.4844,635.657,59.0391Q632.235,61.5938,632.235,66.1875Q632.235,70.5,633.969,72.4453Q635.704,74.3906,639.829,74.3906ZM705.596,58.0781Q705.596,69.9375,701.331,75.9375Q697.065,81.9375,688.956,81.9375Q680.893,81.9375,676.862,75L676.44,81L668.893,81L668.893,9L677.143,9L677.143,35.8594Q681.221,29.3438,688.862,29.3438Q697.206,29.3438,701.378,35.25Q705.549,41.1562,705.596,53.0625L705.596,58.0781ZM697.346,53.3438Q697.346,44.3438,694.838,40.5234Q692.331,36.7031,686.706,36.7031Q680.284,36.7031,677.143,43.6406L677.143,67.7812Q680.237,74.625,686.799,74.625Q692.424,74.625,694.862,70.6875Q697.299,66.75,697.346,58.4531L697.346,53.3438ZM740.379,81Q739.629,79.3594,739.301,75.4688Q734.895,81.9375,728.051,81.9375Q721.161,81.9375,717.293,78.0703Q713.426,74.2031,713.426,67.1719Q713.426,59.4375,718.676,54.8906Q723.926,50.3438,733.067,50.25L739.161,50.25L739.161,44.8594Q739.161,40.3125,737.145,38.3906Q735.129,36.4688,731.004,36.4688Q727.254,36.4688,724.911,38.6953Q722.567,40.9219,722.567,44.3438L714.27,44.3438Q714.27,40.4531,716.567,36.9141Q718.864,33.375,722.754,31.3594Q726.645,29.3438,731.426,29.3438Q739.208,29.3438,743.262,33.2109Q747.317,37.0781,747.411,44.4844L747.411,70.0781Q747.458,75.9375,749.004,80.25L749.004,81L740.379,81ZM729.317,74.3906Q732.364,74.3906,735.129,72.7031Q737.895,71.0156,739.161,68.4844L739.161,56.3906L734.473,56.3906Q728.567,56.4844,725.145,59.0391Q721.723,61.5938,721.723,66.1875Q721.723,70.5,723.458,72.4453Q725.192,74.3906,729.317,74.3906Z" fill="#FFFFFF" fill-opacity="1"/></g></svg>