<svg xmlns="http://www.w3.org/2000/svg" xmlns:xlink="http://www.w3.org/1999/xlink" fill="none" version="1.1" width="216" height="216" viewBox="0 0 216 216"><defs><linearGradient x1="-34.122519820928574" y1="112.54934084415436" x2="444.1122691631317" y2="-1.8242847919464111" gradientUnits="userSpaceOnUse" id="master_svg0_2389_03823"><stop offset="3.57142873108387%" stop-color="#4BB46E" stop-opacity="1"/><stop offset="100%" stop-color="#80B8EC" stop-opacity="0.9800000190734863"/><stop offset="100%" stop-color="#8FA8A6" stop-opacity="0.4699999988079071"/></linearGradient></defs><g><g><g><rect x="0" y="0" width="216" height="216" rx="0" fill="#F6F6F6" fill-opacity="1"/></g><g><path d="M57.6451,126.4155Q57.6451,120.0223,54.1845,116.6204Q50.724,113.2185,41.6913,109.9925Q32.658699999999996,106.7666,27.8784,103.21809999999999Q23.0982,99.6695,20.7227,95.12389999999999Q18.3472,90.57820000000001,18.3472,84.71289999999999Q18.3472,74.5658,25.1217,67.9966Q31.8962,61.4275,42.8644,61.4275Q50.372,61.4275,56.2374,64.8Q62.1027,68.1726,65.27000000000001,74.1553Q68.4373,80.1379,68.4373,87.2936L57.6451,87.2936Q57.6451,79.3754,53.8326,75.0351Q50.0201,70.6947,42.8644,70.6947Q36.353899999999996,70.6947,32.775999999999996,74.3312Q29.1981,77.96770000000001,29.1981,84.5369Q29.1981,89.93299999999999,33.0693,93.56960000000001Q36.9404,97.20609999999999,45.0346,100.0801Q57.6451,104.2445,63.0705,110.3445Q68.49600000000001,116.4444,68.49600000000001,126.2982Q68.49600000000001,136.6799,61.7508,142.9265Q55.0057,149.173,43.3923,149.173Q35.9433,149.173,29.638,145.9178Q23.3328,142.6625,19.7256,136.7679Q16.1184,130.8732,16.1184,123.2482L26.9106,123.2482Q26.9106,131.16649999999998,31.339,135.5655Q35.7673,139.9645,43.3923,139.9645Q50.4893,139.9645,54.0672,136.328Q57.6451,132.6914,57.6451,126.4155ZM133.721,120.9021Q133.017,134.627,126.008,141.9Q118.999,149.173,106.2125,149.173Q93.3674,149.173,85.8011,139.40730000000002Q78.2348,129.6415,78.2348,112.9252L78.2348,97.44069999999999Q78.2348,80.78309999999999,86.0064,71.1053Q93.778,61.4275,107.2096,61.4275Q119.586,61.4275,126.36,68.8471Q133.13400000000001,76.2668,133.721,90.0504L122.87,90.0504Q122.166,79.61,118.471,75.1524Q114.776,70.6947,107.2096,70.6947Q98.4702,70.6947,93.778,77.5278Q89.0857,84.36099999999999,89.0857,97.55799999999999L89.0857,113.2185Q89.0857,126.1809,93.4554,133.102Q97.8251,140.0231,106.2125,140.0231Q114.6,140.0231,118.295,135.8587Q121.99,131.6943,122.87,120.9021L133.721,120.9021ZM185.69,125.7117L156.833,125.7117L150.205,148L139.178,148L166.687,62.6005L175.895,62.6005L203.462,148L192.435,148L185.69,125.7117ZM159.648,116.4444L182.934,116.4444L171.262,77.61580000000001L159.648,116.4444Z" fill="url(#master_svg0_2389_03823)" fill-opacity="1"/></g></g></g></svg>